<svg width="144" height="144" viewBox="0 0 144 144" fill="none" xmlns="http://www.w3.org/2000/svg">
<rect width="144" height="144" rx="40" fill="#FFDEE6"/>
<path d="M33.2801 54.9789C33.1173 54.3046 33.1053 53.6008 33.2451 52.921C33.385 52.2412 33.6729 51.6032 34.0871 51.0555C34.5014 50.5078 35.031 50.0647 35.6357 49.7599C36.2405 49.4551 36.9046 49.2966 37.5776 49.2964H114.843C115.516 49.2966 116.18 49.4551 116.785 49.7599C117.389 50.0647 117.919 50.5078 118.333 51.0555C118.747 51.6032 119.035 52.2412 119.175 52.921C119.315 53.6008 119.303 54.3046 119.14 54.9789L111.117 88.1179C110.638 90.0975 109.532 91.855 107.974 93.1109C106.417 94.3668 104.498 95.0492 102.522 95.0495H49.8983C47.9225 95.0492 46.0033 94.3668 44.4461 93.1109C42.8888 91.855 41.7826 90.0975 41.3035 88.1179L33.2801 54.9835V54.9789Z" fill="#FF4370" stroke="#FF4370" stroke-width="4" stroke-linejoin="round"/>
<path d="M23.8635 63.3475C23.6966 62.6782 23.6843 61.9796 23.8276 61.3048C23.971 60.63 24.2662 59.9967 24.6908 59.453C25.1154 58.9093 25.6583 58.4694 26.2783 58.1669C26.8983 57.8643 27.5791 57.707 28.2689 57.7068H107.476C108.165 57.707 108.846 57.8643 109.466 58.1669C110.086 58.4694 110.629 58.9093 111.054 59.453C111.478 59.9967 111.774 60.63 111.917 61.3048C112.06 61.9796 112.048 62.6782 111.881 63.3475L103.656 96.2428C103.165 98.2079 102.031 99.9524 100.435 101.199C98.8381 102.446 96.8708 103.123 94.8452 103.123H40.8993C38.8738 103.123 36.9064 102.446 35.31 101.199C33.7136 99.9524 32.5797 98.2079 32.0885 96.2428L23.8635 63.3521V63.3475Z" stroke="#3F3F3F" stroke-width="4" stroke-linejoin="round"/>
<path d="M54.2471 75.8735V84.9568M81.4971 75.8735V84.9568M40.6221 57.7068L58.7887 30.4568M95.1221 57.7068L76.9554 30.4568" stroke="#3F3F3F" stroke-width="4" stroke-linecap="round"/>
</svg>
