<svg width="83" height="22" viewBox="0 0 83 22" fill="none" xmlns="http://www.w3.org/2000/svg">
<path d="M14.444 2.38C14.444 1.86667 14.6053 1.47067 14.928 1.192C15.2653 0.913332 15.6907 0.773999 16.204 0.773999C16.7173 0.773999 17.1353 0.913332 17.458 1.192C17.7953 1.47067 17.964 1.86667 17.964 2.38V19.584C17.964 20.0973 17.7953 20.4933 17.458 20.772C17.1353 21.0507 16.7173 21.19 16.204 21.19C15.6907 21.19 15.2653 21.0507 14.928 20.772C14.6053 20.4933 14.444 20.0973 14.444 19.584V2.38ZM3.95 9.156V12.698C3.95 12.8593 3.972 12.9693 4.016 13.028C4.06 13.072 4.16267 13.094 4.324 13.094H7.47C7.63133 13.094 7.734 13.072 7.778 13.028C7.822 12.9693 7.844 12.8593 7.844 12.698V9.156H3.95ZM0.65 3.216C0.65 2.71733 0.796667 2.34333 1.09 2.094C1.398 1.83 1.80133 1.698 2.3 1.698C2.79867 1.698 3.19467 1.83 3.488 2.094C3.796 2.34333 3.95 2.71733 3.95 3.216V6.296H7.844V3.216C7.844 2.71733 7.99067 2.34333 8.284 2.094C8.592 1.83 8.99533 1.698 9.494 1.698C9.99267 1.698 10.3887 1.83 10.682 2.094C10.99 2.34333 11.144 2.71733 11.144 3.216V13.776C11.144 15.228 10.4107 15.954 8.944 15.954H2.85C1.38333 15.954 0.65 15.228 0.65 13.776V3.216ZM22.5391 18.66C22.0405 18.66 21.6518 18.5353 21.3731 18.286C21.0945 18.0367 20.9551 17.6627 20.9551 17.164C20.9551 16.6653 21.0945 16.2913 21.3731 16.042C21.6518 15.7927 22.0405 15.668 22.5391 15.668H39.0391C39.5378 15.668 39.9265 15.7927 40.2051 16.042C40.4838 16.2913 40.6231 16.6653 40.6231 17.164C40.6231 17.6627 40.4838 18.0367 40.2051 18.286C39.9265 18.5353 39.5378 18.66 39.0391 18.66H22.5391ZM25.6191 12.412C24.8711 12.412 24.3285 12.2507 23.9911 11.928C23.6538 11.6053 23.4851 11.07 23.4851 10.322V3.898C23.4851 3.15 23.6538 2.61467 23.9911 2.292C24.3285 1.96933 24.8711 1.808 25.6191 1.808H36.5091C37.0078 1.808 37.3965 1.93267 37.6751 2.182C37.9538 2.43133 38.0931 2.80533 38.0931 3.304C38.0931 3.80267 37.9538 4.17667 37.6751 4.426C37.3965 4.67533 37.0078 4.8 36.5091 4.8H27.2471C27.1298 4.8 27.0565 4.81467 27.0271 4.844C26.9978 4.87333 26.9831 4.93933 26.9831 5.042V9.178C26.9831 9.28067 26.9978 9.34667 27.0271 9.376C27.0565 9.40533 27.1298 9.42 27.2471 9.42H36.7291C37.2278 9.42 37.6165 9.54467 37.8951 9.794C38.1738 10.0433 38.3131 10.4173 38.3131 10.916C38.3131 11.4147 38.1738 11.7887 37.8951 12.038C37.6165 12.2873 37.2278 12.412 36.7291 12.412H25.6191ZM53.3771 13.688C53.3771 15.1253 52.6438 15.844 51.1771 15.844H45.0831C43.6165 15.844 42.8831 15.1253 42.8831 13.688V3.986C42.8831 2.534 43.6165 1.808 45.0831 1.808H51.1771C52.6438 1.808 53.3771 2.534 53.3771 3.986V13.688ZM56.0171 2.38C56.0171 1.86667 56.1785 1.47067 56.5011 1.192C56.8385 0.913332 57.2638 0.773999 57.7771 0.773999C58.2905 0.773999 58.7085 0.913332 59.0311 1.192C59.3685 1.47067 59.5371 1.86667 59.5371 2.38V7.264H61.0991C61.5685 7.264 61.9425 7.38867 62.2211 7.638C62.5145 7.88733 62.6611 8.26867 62.6611 8.782C62.6611 9.28067 62.5145 9.65467 62.2211 9.904C61.9425 10.1533 61.5685 10.278 61.0991 10.278H59.5371V19.584C59.5371 20.0973 59.3685 20.4933 59.0311 20.772C58.7085 21.0507 58.2905 21.19 57.7771 21.19C57.2638 21.19 56.8385 21.0507 56.5011 20.772C56.1785 20.4933 56.0171 20.0973 56.0171 19.584V2.38ZM46.3151 12.566C46.3151 12.7273 46.3371 12.83 46.3811 12.874C46.4251 12.918 46.5278 12.94 46.6891 12.94H49.5711C49.7325 12.94 49.8351 12.918 49.8791 12.874C49.9231 12.83 49.9451 12.7273 49.9451 12.566V5.086C49.9451 4.92467 49.9231 4.822 49.8791 4.778C49.8351 4.734 49.7325 4.712 49.5711 4.712H46.6891C46.5278 4.712 46.4251 4.734 46.3811 4.778C46.3371 4.822 46.3151 4.92467 46.3151 5.086V12.566ZM66.5491 13.006C66.1384 13.1967 65.7351 13.2553 65.3391 13.182C64.9578 13.1087 64.6644 12.8813 64.4591 12.5C64.2538 12.104 64.2244 11.73 64.3711 11.378C64.5324 11.026 64.8184 10.74 65.2291 10.52C65.8598 10.1827 66.4391 9.816 66.9671 9.42C67.5098 9.024 67.9718 8.59867 68.3531 8.144C67.7518 8.188 67.1504 8.21 66.5491 8.21H65.7131C65.2438 8.21 64.8698 8.122 64.5911 7.946C64.3271 7.75533 64.1951 7.42533 64.1951 6.956C64.1951 6.48667 64.3271 6.164 64.5911 5.988C64.8698 5.79733 65.2438 5.702 65.7131 5.702H66.5491C67.5904 5.702 68.6171 5.658 69.6291 5.57C69.6584 5.438 69.6804 5.306 69.6951 5.174C69.7098 5.02733 69.7171 4.87333 69.7171 4.712V4.36C69.7171 4.12533 69.5998 4.008 69.3651 4.008H66.0431C65.5884 4.008 65.2218 3.898 64.9431 3.678C64.6644 3.44333 64.5251 3.09133 64.5251 2.622C64.5251 2.15267 64.6644 1.808 64.9431 1.588C65.2218 1.35333 65.5884 1.236 66.0431 1.236H70.9711C71.6751 1.236 72.1884 1.38267 72.5111 1.676C72.8484 1.96933 73.0171 2.468 73.0171 3.172V3.744C73.0171 4.316 72.9658 4.85133 72.8631 5.35H74.7331V2.468C74.7331 1.99867 74.8651 1.63933 75.1291 1.39C75.4078 1.126 75.7818 0.993999 76.2511 0.993999C76.7204 0.993999 77.0871 1.126 77.3511 1.39C77.6298 1.63933 77.7691 1.99867 77.7691 2.468V10.542C77.7691 11.0113 77.6298 11.378 77.3511 11.642C77.0871 11.8913 76.7204 12.016 76.2511 12.016C75.7818 12.016 75.4078 11.8913 75.1291 11.642C74.8651 11.378 74.7331 11.0113 74.7331 10.542V7.99H71.9611C71.4331 9.03133 70.7144 9.98467 69.8051 10.85C68.8958 11.7007 67.8104 12.4193 66.5491 13.006ZM74.4691 12.764C75.0264 12.764 75.4518 12.9033 75.7451 13.182C76.0531 13.4607 76.2071 13.8493 76.2071 14.348V14.898C76.2071 15.294 76.3904 15.668 76.7571 16.02C77.1238 16.372 77.5711 16.6947 78.0991 16.988C78.6418 17.2667 79.2138 17.516 79.8151 17.736C80.4164 17.956 80.9444 18.132 81.3991 18.264C81.8538 18.396 82.1691 18.6453 82.3451 19.012C82.5358 19.3787 82.5504 19.7747 82.3891 20.2C82.2278 20.6253 81.9564 20.8893 81.5751 20.992C81.2084 21.0947 80.7978 21.0873 80.3431 20.97C79.2724 20.6767 78.2091 20.288 77.1531 19.804C76.1118 19.3347 75.2171 18.7407 74.4691 18.022C73.7211 18.7407 72.8191 19.3567 71.7631 19.87C70.7218 20.3833 69.6658 20.7867 68.5951 21.08C68.1404 21.1973 67.7224 21.2047 67.3411 21.102C66.9744 20.9993 66.7104 20.7353 66.5491 20.31C66.3878 19.8847 66.3951 19.4887 66.5711 19.122C66.7618 18.7553 67.0844 18.506 67.5391 18.374C67.9938 18.242 68.5218 18.066 69.1231 17.846C69.7244 17.6113 70.2891 17.34 70.8171 17.032C71.3598 16.724 71.8144 16.394 72.1811 16.042C72.5478 15.6753 72.7311 15.294 72.7311 14.898V14.348C72.7311 13.8493 72.8778 13.4607 73.1711 13.182C73.4791 12.9033 73.9118 12.764 74.4691 12.764ZM78.8911 2.27C78.8911 1.80067 79.0304 1.434 79.3091 1.17C79.5878 0.905999 79.9618 0.773999 80.4311 0.773999C80.9004 0.773999 81.2671 0.905999 81.5311 1.17C81.8098 1.434 81.9491 1.80067 81.9491 2.27V12.522C81.9491 12.9913 81.8098 13.358 81.5311 13.622C81.2671 13.8713 80.9004 13.996 80.4311 13.996C79.9618 13.996 79.5878 13.8713 79.3091 13.622C79.0304 13.358 78.8911 12.9913 78.8911 12.522V2.27Z" fill="#333333"/>
</svg>
