<svg width="44" height="44" viewBox="0 0 44 44" fill="none" xmlns="http://www.w3.org/2000/svg">
<rect width="44" height="44" rx="15" fill="#FFDEE6"/>
<path d="M11.3861 17.0451C11.3398 16.8533 11.3364 16.6532 11.3761 16.4598C11.4159 16.2665 11.4978 16.085 11.6156 15.9293C11.7334 15.7735 11.884 15.6475 12.056 15.5608C12.228 15.4741 12.4169 15.429 12.6083 15.429H34.5828C34.7742 15.429 34.9631 15.4741 35.1351 15.5608C35.3071 15.6475 35.4577 15.7735 35.5755 15.9293C35.6933 16.085 35.7752 16.2665 35.815 16.4598C35.8547 16.6532 35.8513 16.8533 35.805 17.0451L33.5231 26.4699C33.3869 27.0329 33.0723 27.5328 32.6294 27.89C32.1865 28.2472 31.6407 28.4412 31.0787 28.4413H16.1124C15.5504 28.4412 15.0046 28.2472 14.5617 27.89C14.1188 27.5328 13.8042 27.0329 13.668 26.4699L11.3861 17.0464V17.0451Z" fill="#FF4370" stroke="#FF4370" stroke-width="1.5" stroke-linejoin="round"/>
<path d="M7.95197 20.1814C7.90449 19.991 7.901 19.7923 7.94177 19.6004C7.98253 19.4085 8.06649 19.2284 8.18725 19.0738C8.30802 18.9191 8.46242 18.7941 8.63875 18.708C8.81507 18.622 9.00868 18.5772 9.20488 18.5771H31.7316C31.9278 18.5772 32.1214 18.622 32.2977 18.708C32.474 18.7941 32.6284 18.9191 32.7492 19.0738C32.87 19.2284 32.9539 19.4085 32.9947 19.6004C33.0354 19.7923 33.032 19.991 32.9845 20.1814L30.6453 29.5369C30.5056 30.0958 30.1831 30.592 29.729 30.9465C29.275 31.3011 28.7155 31.4937 28.1394 31.4938H12.797C12.2209 31.4937 11.6614 31.3011 11.2074 30.9465C10.7534 30.592 10.4309 30.0958 10.2912 29.5369L7.95197 20.1827V20.1814Z" stroke="#2E2E2E" stroke-width="1.5" stroke-linejoin="round"/>
<path d="M16.5933 23.7438V26.3271M24.3433 23.7438V26.3271M12.7183 18.5771L17.8849 10.8271M28.2183 18.5771L23.0516 10.8271" stroke="#2E2E2E" stroke-width="1.5" stroke-linecap="round"/>
</svg>
