<svg width="21" height="22" viewBox="0 0 21 22" fill="none" xmlns="http://www.w3.org/2000/svg">
<path d="M4.82617 1.91739V17.2565C4.82617 17.765 5.02772 18.2527 5.38649 18.6123C5.74525 18.9719 6.23184 19.1739 6.73922 19.1739H18.2175C18.7248 19.1739 19.2114 18.9719 19.5702 18.6123C19.929 18.2527 20.1305 17.765 20.1305 17.2565V6.08005C20.1305 5.82461 20.0795 5.57176 19.9807 5.33633C19.8818 5.10091 19.7369 4.88766 19.5547 4.70911L15.3077 0.546456C14.9503 0.196204 14.4704 6.2353e-05 13.9705 0H6.73922C6.23184 0 5.74525 0.20201 5.38649 0.561591C5.02772 0.921171 4.82617 1.40887 4.82617 1.91739Z" fill="#FF4370"/>
<path d="M14.3914 0V3.83478C14.3914 4.34331 14.5929 4.831 14.9517 5.19058C15.3104 5.55016 15.797 5.75217 16.3044 5.75217H20.1305" fill="#FF4370"/>
<path d="M1 4.5651V19.1738C1 19.6581 1.20155 20.1226 1.56032 20.465C1.91908 20.8075 2.40567 20.9999 2.91304 20.9999H14.3913C14.8987 20.9999 15.3853 20.8075 15.744 20.465C16.1028 20.1226 16.3043 19.6581 16.3043 19.1738V8.52953C16.3043 8.28626 16.2534 8.04545 16.1545 7.82124C16.0556 7.59702 15.9108 7.39393 15.7285 7.22388L11.4816 3.25945C11.1242 2.92588 10.6442 2.73907 10.1443 2.73901H2.91304C2.40567 2.73901 1.91908 2.9314 1.56032 3.27386C1.20155 3.61632 1 4.08079 1 4.5651V4.5651Z" stroke="black" stroke-width="1.5" stroke-linecap="round" stroke-linejoin="round"/>
<path d="M10.5652 2.73901V6.39119C10.5652 6.8755 10.7667 7.33997 11.1255 7.68243C11.4843 8.02488 11.9709 8.21727 12.4782 8.21727H16.3043" stroke="black" stroke-width="1.5" stroke-linejoin="round"/>
</svg>
