<svg width="23" height="23" viewBox="0 0 23 23" fill="none" xmlns="http://www.w3.org/2000/svg">
<path d="M21.3631 0H4.99408C4.09005 0 3.35718 0.703553 3.35718 1.57143V17.2857C3.35718 18.1536 4.09005 18.8571 4.99408 18.8571H21.3631C22.2672 18.8571 23 18.1536 23 17.2857V1.57143C23 0.703553 22.2672 0 21.3631 0Z" fill="#FF4370"/>
<path d="M18.2857 3.14282H2.57143C1.70355 3.14282 1 3.84637 1 4.71425V20.4285C1 21.2964 1.70355 22 2.57143 22H18.2857C19.1536 22 19.8571 21.2964 19.8571 20.4285V4.71425C19.8571 3.84637 19.1536 3.14282 18.2857 3.14282Z" stroke="#2E2E2E" stroke-width="1.5" stroke-linejoin="round"/>
<path d="M1 14.6666L6.6011 9.53226C6.78988 9.35923 7.03551 9.26135 7.29156 9.2571C7.5476 9.25286 7.79634 9.34254 7.99076 9.50921L14.619 15.1904M12.5238 12.5714L15.024 10.0713C15.2023 9.89282 15.439 9.78472 15.6906 9.76682C15.9423 9.74892 16.1919 9.82242 16.3937 9.97383L19.8571 12.5714M1 10.4762V15.7143M19.8571 10.4762V15.7143" stroke="#2E2E2E" stroke-width="1.5" stroke-linecap="round" stroke-linejoin="round"/>
</svg>
