<svg width="44" height="44" viewBox="0 0 44 44" fill="none" xmlns="http://www.w3.org/2000/svg">
<rect width="44" height="44" rx="15" fill="#FFDEE6"/>
<path d="M34.0694 11.8729C33.4341 11.2792 32.6798 10.8081 31.8496 10.4868C31.0194 10.1654 30.1295 10 29.2309 10C28.3322 10 27.4424 10.1654 26.6122 10.4868C25.7819 10.8081 25.0276 11.2792 24.3923 11.8729L23.0739 13.1046L21.7554 11.8729C20.4722 10.6741 18.7317 10.0006 16.9169 10.0006C15.1021 10.0006 13.3616 10.6741 12.0784 11.8729C10.7951 13.0717 10.0742 14.6977 10.0742 16.3931C10.0742 18.0884 10.7951 19.7144 12.0784 20.9132L13.3969 22.1449L23.0739 31.1852L32.7509 22.1449L34.0694 20.9132C34.705 20.3197 35.2092 19.615 35.5532 18.8395C35.8972 18.0639 36.0742 17.2326 36.0742 16.3931C36.0742 15.5535 35.8972 14.7222 35.5532 13.9467C35.2092 13.1711 34.705 12.4664 34.0694 11.8729Z" fill="#FF4370"/>
<path d="M32.1433 16.6876C31.5081 16.0938 30.7538 15.6228 29.9235 15.3015C29.0933 14.9801 28.2035 14.8147 27.3048 14.8147C26.4062 14.8147 25.5163 14.9801 24.6861 15.3015C23.8559 15.6228 23.1016 16.0938 22.4663 16.6876L21.1479 17.9193L19.8294 16.6876C18.5461 15.4888 16.8057 14.8153 14.9909 14.8153C13.1761 14.8153 11.4356 15.4888 10.1524 16.6876C8.86912 17.8864 8.14819 19.5124 8.14819 21.2078C8.14819 22.9031 8.86912 24.5291 10.1524 25.7279L11.4708 26.9596L21.1479 35.9999L30.8249 26.9596L32.1433 25.7279C32.7789 25.1344 33.2831 24.4297 33.6271 23.6542C33.9711 22.8786 34.1482 22.0473 34.1482 21.2078C34.1482 20.3682 33.9711 19.5369 33.6271 18.7614C33.2831 17.9858 32.7789 17.2811 32.1433 16.6876Z" stroke="#2E2E2E" stroke-width="1.5" stroke-linecap="round" stroke-linejoin="round"/>
</svg>
