<svg width="86" height="86" viewBox="0 0 86 86" fill="none" xmlns="http://www.w3.org/2000/svg">
<path d="M43.0064 86C52.5472 85.9986 61.8166 82.8242 69.3552 76.9765C76.8939 71.1288 82.2737 62.94 84.6476 53.6993C87.0216 44.4585 86.2548 34.6907 82.4681 25.9335C78.6814 17.1764 72.0898 9.92727 63.7311 5.32748C55.3723 0.727693 45.7211 -0.96154 36.297 0.525728C26.8728 2.01299 18.2109 6.59229 11.6749 13.5427C5.13895 20.4931 1.10012 29.4198 0.194295 38.9175C-0.711534 48.4152 1.56708 57.9445 6.67141 66.005L0.00641465 86L20.0014 79.335C26.8792 83.7008 34.86 86.013 43.0064 86Z" fill="#E4E4E4"/>
<line x1="24" y1="36.2" x2="62" y2="36.2" stroke="white" stroke-width="5" stroke-linecap="round"/>
<line x1="24" y1="53.3999" x2="44.8" y2="53.3999" stroke="white" stroke-width="5" stroke-linecap="round"/>
<rect width="43" height="86" fill="white" fill-opacity="0.4"/>
</svg>
