<svg width="44" height="44" viewBox="0 0 44 44" fill="none" xmlns="http://www.w3.org/2000/svg">
<rect width="44" height="44" rx="15" fill="#FFDEE6"/>
<path d="M20.6417 7.32522C21.0432 7.11193 21.4949 7 21.9542 7C22.4135 7 22.8652 7.11193 23.2667 7.32522L33.4245 12.7222C33.6351 12.8342 33.8106 12.998 33.9328 13.1967C34.0549 13.3954 34.1193 13.6217 34.1193 13.8522V24.5C34.1192 24.9611 33.9902 25.4139 33.7456 25.8113C33.5011 26.2086 33.1499 26.5363 32.7284 26.7601L23.2667 31.7899C22.8652 32.0032 22.4135 32.1151 21.9542 32.1151C21.4949 32.1151 21.0432 32.0032 20.6417 31.7899L11.1799 26.7601C10.7587 26.5364 10.4076 26.209 10.1631 25.8118C9.91855 25.4147 9.78942 24.9622 9.78906 24.5013V13.8522C9.78905 13.6217 9.85346 13.3954 9.97561 13.1967C10.0978 12.998 10.2732 12.8342 10.4838 12.7222L20.6431 7.32522H20.6417Z" fill="#FF4370"/>
<path d="M13.844 19.9809L17.899 22.1428L13.844 19.9809Z" fill="#FF4370"/>
<path d="M9.78906 13.092L21.9542 19.557L9.78906 13.092ZM21.9542 19.557L34.1193 13.092L21.9542 19.557ZM21.9542 19.557V31.8404V19.557Z" fill="#FF4370"/>
<path d="M18.3957 10.4766C18.794 10.2555 19.2421 10.1394 19.6976 10.1394C20.1532 10.1394 20.6013 10.2555 20.9995 10.4766L31.0755 16.0731C31.2844 16.1892 31.4584 16.3591 31.5796 16.5652C31.7008 16.7712 31.7647 17.0059 31.7646 17.2449V28.2862C31.7645 28.7644 31.6366 29.2339 31.394 29.6459C31.1514 30.058 30.803 30.3977 30.385 30.6299L20.9995 35.8455C20.6013 36.0667 20.1532 36.1828 19.6976 36.1828C19.2421 36.1828 18.794 36.0667 18.3957 35.8455L9.01028 30.6299C8.59243 30.3979 8.2442 30.0583 8.00163 29.6465C7.75906 29.2347 7.63097 28.7655 7.63062 28.2876V17.2449C7.63061 17.0059 7.69449 16.7712 7.81566 16.5652C7.93683 16.3591 8.11088 16.1892 8.31978 16.0731L18.3971 10.4766H18.3957Z" stroke="#2E2E2E" stroke-width="1.5" stroke-linecap="round" stroke-linejoin="round"/>
<path d="M13.6642 13.1045L25.7313 19.8084V24.5011M11.6531 23.6001L15.6754 25.8419" stroke="#2E2E2E" stroke-width="1.5" stroke-linecap="round" stroke-linejoin="round"/>
<path d="M19.6976 23.1604V35.8978M7.63062 16.4565L19.6976 23.1604L7.63062 16.4565ZM19.6976 23.1604L31.7646 16.4565L19.6976 23.1604Z" stroke="#2E2E2E" stroke-width="1.5" stroke-linejoin="round"/>
</svg>
