<svg width="22" height="22" viewBox="0 0 22 22" fill="none" xmlns="http://www.w3.org/2000/svg">
<circle cx="12.2173" cy="9.08696" r="9.08696" fill="#FF4370"/>
<path d="M9.56528 8.19024C9.07376 8.19024 8.58706 8.28766 8.13297 8.47693C7.67887 8.66621 7.26627 8.94363 6.91871 9.29337C6.57116 9.6431 6.29547 10.0583 6.10738 10.5152C5.91928 10.9722 5.82247 11.4619 5.82247 11.9565C5.82247 12.4511 5.91928 12.9409 6.10738 13.3978C6.29547 13.8548 6.57116 14.27 6.91871 14.6197C7.26627 14.9694 7.67887 15.2469 8.13297 15.4361C8.58706 15.6254 9.07376 15.7228 9.56528 15.7228C10.5579 15.7228 11.5099 15.326 12.2118 14.6197C12.9137 13.9134 13.3081 12.9554 13.3081 11.9565C13.3081 10.9577 12.9137 9.99968 12.2118 9.29337C11.5099 8.58705 10.5579 8.19024 9.56528 8.19024ZM7.07007 11.9565C7.07007 11.6268 7.13461 11.3003 7.26001 10.9957C7.3854 10.691 7.5692 10.4142 7.8009 10.1811C8.0326 9.94793 8.30767 9.76299 8.6104 9.6368C8.91313 9.51062 9.2376 9.44567 9.56528 9.44567C9.89295 9.44567 10.2174 9.51062 10.5201 9.6368C10.8229 9.76299 11.0979 9.94793 11.3296 10.1811C11.5614 10.4142 11.7451 10.691 11.8705 10.9957C11.9959 11.3003 12.0605 11.6268 12.0605 11.9565C12.0605 12.6225 11.7976 13.2611 11.3296 13.732C10.8617 14.2029 10.227 14.4674 9.56528 14.4674C8.90351 14.4674 8.26884 14.2029 7.8009 13.732C7.33296 13.2611 7.07007 12.6225 7.07007 11.9565ZM15.9779 18.9828L14.5407 18.3475C14.3362 18.2581 14.1136 18.218 13.891 18.2305C13.6683 18.243 13.4516 18.3077 13.2582 18.4195C12.8698 18.6455 12.6219 19.0447 12.5728 19.4941L12.3998 21.0676C12.3824 21.2257 12.3169 21.3746 12.2122 21.4938C12.1076 21.6131 11.9689 21.6969 11.8151 21.7338C10.3354 22.0888 8.79349 22.0888 7.31377 21.7338C7.16015 21.6967 7.02165 21.6129 6.91716 21.4936C6.81266 21.3744 6.74727 21.2256 6.72989 21.0676L6.55689 19.4967C6.53205 19.2756 6.45606 19.0634 6.33502 18.8772C6.21398 18.691 6.05125 18.536 5.8599 18.4245C5.66875 18.3133 5.45428 18.2488 5.23381 18.2363C5.01334 18.2238 4.79304 18.2636 4.59067 18.3525L3.15344 18.9878C3.00815 19.052 2.84661 19.0692 2.69118 19.037C2.53576 19.0047 2.39414 18.9247 2.28594 18.8078C1.25148 17.6923 0.481702 16.3554 0.0344342 14.8976C-0.0125955 14.7444 -0.0111229 14.5802 0.0386479 14.4279C0.0884186 14.2755 0.184026 14.1425 0.312233 14.0472L1.58229 13.1032C1.76109 12.971 1.90647 12.7983 2.00667 12.5991C2.10686 12.3999 2.15908 12.1798 2.15908 11.9565C2.15908 11.7333 2.10686 11.5132 2.00667 11.314C1.90647 11.1148 1.76109 10.9421 1.58229 10.8099L0.312233 9.86834C0.18386 9.77302 0.0881465 9.63987 0.0383683 9.48735C-0.01141 9.33483 -0.0127849 9.1705 0.0344342 9.01715C0.482628 7.56058 1.25297 6.22512 2.2876 5.11109C2.3959 4.99442 2.53757 4.91451 2.69299 4.88242C2.84841 4.85033 3.00989 4.86765 3.1551 4.93198L4.58568 5.56555C4.78924 5.65371 5.01047 5.6927 5.23168 5.67939C5.45289 5.66608 5.66794 5.60085 5.8596 5.48892C6.05127 5.37699 6.21424 5.22147 6.33546 5.03479C6.45669 4.84812 6.53281 4.63549 6.55772 4.41391L6.73239 2.84211C6.74998 2.68221 6.81673 2.53182 6.92334 2.41194C7.02995 2.29206 7.1711 2.20866 7.32708 2.17338C8.05984 2.00934 8.80757 1.92229 9.57609 1.91309C10.3263 1.92146 11.0732 2.00934 11.8051 2.17338C11.9613 2.20859 12.1026 2.29208 12.2092 2.41215C12.3159 2.53222 12.3825 2.68285 12.3998 2.84294L12.5737 4.41474C12.6111 4.76332 12.7751 5.08571 13.0342 5.32015C13.2933 5.5546 13.6292 5.68459 13.9776 5.68524C14.1714 5.68524 14.3636 5.64423 14.5432 5.56472L15.9738 4.93114C16.119 4.86682 16.2805 4.8495 16.4359 4.88159C16.5913 4.91367 16.733 4.99358 16.8413 5.11025C17.8757 6.22434 18.6457 7.55979 19.0936 9.01632C19.1407 9.16946 19.1394 9.33355 19.0898 9.4859C19.0402 9.63824 18.9447 9.7713 18.8167 9.86666L17.5483 10.8099C17.1865 11.0777 16.9677 11.5037 16.9677 11.9565C16.9677 12.4085 17.1865 12.8345 17.5491 13.1032L18.8183 14.0456C19.0811 14.2414 19.1926 14.5829 19.0961 14.8968C18.6483 16.3531 17.8785 17.6885 16.8446 18.8028C16.7364 18.9196 16.5948 18.9997 16.4394 19.0319C16.2839 19.0642 16.1232 19.047 15.9779 18.9828ZM11.4475 18.8171C11.646 18.1916 12.0684 17.6627 12.6327 17.3331C12.9957 17.1226 13.4028 17.0008 13.8211 16.9774C14.2395 16.954 14.6574 17.0297 15.0414 17.1984L16.1593 17.6922C16.8773 16.8556 17.4331 15.8909 17.7978 14.8482L16.8088 14.1142C16.4722 13.8655 16.1982 13.5398 16.0091 13.165C15.82 12.7902 15.721 12.376 15.7201 11.9557C15.7201 11.0961 16.1335 10.2985 16.8072 9.79971L16.8088 9.79887L17.7961 9.06486C17.4311 8.02233 16.8751 7.05795 16.1568 6.22173L15.0481 6.71218L15.0464 6.71302C14.7087 6.86367 14.3453 6.94067 13.9768 6.94067C13.3216 6.93968 12.6897 6.69566 12.202 6.25528C11.7144 5.8149 11.4052 5.20907 11.3335 4.55368V4.552L11.198 3.33005C10.6629 3.22977 10.1203 3.17573 9.57609 3.16852C9.02497 3.17549 8.47544 3.22953 7.93341 3.33005L7.79784 4.55284C7.75122 4.97011 7.60795 5.37056 7.37957 5.72199C7.15118 6.07342 6.84405 6.36603 6.48285 6.5763C6.12165 6.78656 5.71646 6.90862 5.29986 6.93265C4.88326 6.95669 4.46686 6.88204 4.08415 6.71469L2.97295 6.22256C2.2546 7.05876 1.69853 8.02315 1.3336 9.0657L2.32337 9.79971C2.65935 10.0487 2.93247 10.3736 3.1207 10.7484C3.30894 11.1231 3.40701 11.5371 3.40701 11.957C3.40701 12.3768 3.30894 12.7908 3.1207 13.1655C2.93247 13.5403 2.65935 13.8652 2.32337 14.1142L1.3336 14.8491C1.69785 15.8932 2.25364 16.8594 2.97212 17.6972L4.0908 17.2034C4.4723 17.0354 4.88772 16.9599 5.30353 16.9832C5.71934 17.0064 6.12389 17.1278 6.48453 17.3373C6.84502 17.5469 7.15163 17.8386 7.37972 18.1891C7.60781 18.5395 7.75102 18.9389 7.79784 19.3552V19.3594L7.93258 20.5847C9.01134 20.7981 10.12 20.7981 11.1988 20.5847L11.3335 19.3569C11.3535 19.1728 11.3909 18.9911 11.4475 18.8171Z" fill="black"/>
</svg>
