<svg width="25" height="25" viewBox="0 0 25 25" fill="none" xmlns="http://www.w3.org/2000/svg">
<path d="M18.25 19.4V12.5C18.25 10.975 17.6442 9.51247 16.5659 8.43414C15.4875 7.3558 14.025 6.75 12.5 6.75C10.975 6.75 9.51247 7.3558 8.43414 8.43414C7.3558 9.51247 6.75 10.975 6.75 12.5V19.4M18.25 19.4H6.75M18.25 19.4C18.86 19.4 19.445 19.6423 19.8763 20.0737C20.3077 20.505 20.55 21.09 20.55 21.7V24H4.45V21.7C4.45 21.09 4.69232 20.505 5.12365 20.0737C5.55499 19.6423 6.14 19.4 6.75 19.4M22.85 12.5H24M19.975 3.875L19.4 4.45M1 12.5H2.15M12.5 1V2.15M4.36835 4.36835L5.1814 5.1814M12.5 12.5V19.4" stroke="#2E2E2E" stroke-width="2" stroke-linecap="round" stroke-linejoin="round"/>
</svg>
