<svg width="21" height="21" viewBox="0 0 21 21" fill="none" xmlns="http://www.w3.org/2000/svg">
<circle cx="12.7104" cy="8.28947" r="8.28947" fill="#FF4370"/>
<path d="M9.94734 17.2697C11.5962 17.2697 13.1776 16.6147 14.3435 15.4487C15.5094 14.2828 16.1644 12.7014 16.1644 11.0526C16.1644 9.40369 15.5094 7.82234 14.3435 6.65641C13.1776 5.49048 11.5962 4.83546 9.94734 4.83546C8.29846 4.83546 6.71712 5.49048 5.55119 6.65641C4.38525 7.82234 3.73024 9.40369 3.73024 11.0526C3.73024 12.7014 4.38525 14.2828 5.55119 15.4487C6.71712 16.6147 8.29846 17.2697 9.94734 17.2697ZM9.94734 18.5131C8.96761 18.5131 7.99748 18.3201 7.09232 17.9452C6.18717 17.5703 5.36473 17.0207 4.67195 16.328C3.97918 15.6352 3.42964 14.8127 3.05472 13.9076C2.67979 13.0024 2.48682 12.0323 2.48682 11.0526C2.48682 10.0728 2.67979 9.1027 3.05472 8.19755C3.42964 7.29239 3.97918 6.46995 4.67195 5.77718C5.36473 5.0844 6.18717 4.53487 7.09232 4.15994C7.99748 3.78501 8.96761 3.59204 9.94734 3.59204C11.926 3.59204 13.8236 4.37806 15.2227 5.77718C16.6219 7.1763 17.4079 9.07391 17.4079 11.0526C17.4079 13.0312 16.6219 14.9288 15.2227 16.328C13.8236 17.7271 11.926 18.5131 9.94734 18.5131Z" fill="#2E2E2E"/>
<path d="M5.67869 17.1255L6.75549 17.7472L5.82293 19.3624C5.7824 19.4336 5.72818 19.4962 5.66338 19.5464C5.59858 19.5967 5.52448 19.6336 5.44536 19.6551C5.36623 19.6766 5.28364 19.6822 5.20233 19.6716C5.12102 19.661 5.04261 19.6345 4.9716 19.5935C4.90059 19.5525 4.8384 19.4979 4.7886 19.4327C4.73879 19.3676 4.70236 19.2933 4.6814 19.214C4.66045 19.1347 4.65538 19.0521 4.66648 18.9709C4.67759 18.8896 4.70466 18.8114 4.74612 18.7407L5.67869 17.1255ZM14.216 17.1255L13.1392 17.7472L14.0718 19.3624C14.1123 19.4336 14.1665 19.4962 14.2313 19.5464C14.2961 19.5967 14.3702 19.6336 14.4494 19.6551C14.5285 19.6766 14.6111 19.6822 14.6924 19.6716C14.7737 19.661 14.8521 19.6345 14.9231 19.5935C14.9941 19.5525 15.0563 19.4979 15.1061 19.4327C15.1559 19.3676 15.1923 19.2933 15.2133 19.214C15.2343 19.1347 15.2393 19.0521 15.2282 18.9709C15.2171 18.8896 15.1901 18.8114 15.1486 18.7407L14.216 17.1255ZM9.94735 11.0526H13.0559C13.2208 11.0526 13.3789 11.1181 13.4955 11.2347C13.6121 11.3513 13.6776 11.5094 13.6776 11.6743C13.6776 11.8392 13.6121 11.9973 13.4955 12.1139C13.3789 12.2305 13.2208 12.296 13.0559 12.296H9.32564C9.16076 12.296 9.00262 12.2305 8.88603 12.1139C8.76943 11.9973 8.70393 11.8392 8.70393 11.6743V7.32232C8.70393 7.15744 8.76943 6.9993 8.88603 6.88271C9.00262 6.76611 9.16076 6.70061 9.32564 6.70061C9.49053 6.70061 9.64867 6.76611 9.76526 6.88271C9.88185 6.9993 9.94735 7.15744 9.94735 7.32232V11.0526ZM1.75818 7.17187C1.36141 6.57398 1.18371 5.85723 1.25523 5.14323C1.32674 4.42923 1.64307 3.76197 2.15054 3.25464C2.65801 2.74732 3.32537 2.43118 4.03939 2.35987C4.7534 2.28857 5.4701 2.46647 6.06788 2.86342L5.1577 3.7736C4.80965 3.60738 4.41864 3.55314 4.03849 3.61837C3.65835 3.68359 3.30777 3.86506 3.03504 4.13779C2.76231 4.41052 2.58084 4.76109 2.51562 5.14124C2.4504 5.52138 2.50463 5.9124 2.67085 6.26044L1.75943 7.17187H1.75818ZM17.9861 7.17187C18.3823 6.57407 18.5596 5.85765 18.488 5.14405C18.4164 4.43044 18.1002 3.76356 17.5931 3.25643C17.0859 2.74931 16.419 2.43313 15.7054 2.3615C14.9918 2.28987 14.2754 2.4672 13.6776 2.86342L14.5878 3.7736C14.9358 3.60738 15.3269 3.55314 15.707 3.61837C16.0871 3.68359 16.4377 3.86506 16.7105 4.13779C16.9832 4.41052 17.1647 4.76109 17.2299 5.14124C17.2951 5.52138 17.2409 5.9124 17.0746 6.26044L17.9861 7.17187Z" fill="#2E2E2E"/>
</svg>
