<svg width="30" height="30" viewBox="0 0 30 30" fill="none" xmlns="http://www.w3.org/2000/svg">
<path d="M7.83754 9.51593C7.8398 9.2244 7.89948 8.93527 8.01316 8.66503C8.12684 8.3948 8.29229 8.14876 8.50008 7.94098C8.70786 7.7332 8.95389 7.56774 9.22412 7.45407C9.49436 7.34038 9.7835 7.28071 10.075 7.27845L22.4742 7.17962C23.0628 7.17486 23.6254 7.40408 24.0383 7.81687L28.4439 12.2225C29.3022 13.0807 29.291 14.4876 28.4182 15.3604L23.9425 19.8361C23.5237 20.2549 22.9569 20.4936 22.368 20.4983L9.96886 20.5972C9.67734 20.5995 9.38911 20.5445 9.12066 20.4351C8.8522 20.3257 8.60878 20.1641 8.40428 19.9596C8.19979 19.7551 8.03823 19.5117 7.92884 19.2433C7.81946 18.9748 7.76438 18.6866 7.76677 18.3951L7.83754 9.51593Z" fill="#FF4370"/>
<path d="M5.05675 12.0324C5.05669 11.7574 5.11083 11.485 5.21607 11.2308C5.32131 10.9767 5.47558 10.7458 5.67009 10.5513C5.86459 10.3568 6.09551 10.2025 6.34965 10.0973C6.60379 9.99203 6.87618 9.93789 7.15125 9.93795L18.8506 9.93795C19.4059 9.93788 19.9386 10.1584 20.3313 10.551L24.5217 14.7414C25.338 15.5577 25.338 16.8852 24.521 17.7022L20.3313 21.8918C19.9392 22.2839 19.4062 22.5049 18.8506 22.5049L7.15125 22.5049C6.87618 22.505 6.60379 22.4508 6.34965 22.3456C6.09551 22.2404 5.86459 22.0861 5.67009 21.8916C5.47558 21.6971 5.32131 21.4662 5.21607 21.212C5.11083 20.9579 5.05669 20.6855 5.05675 20.4104V12.0324Z" stroke="black" stroke-width="1.5" stroke-linecap="round" stroke-linejoin="round"/>
<path d="M21.2119 16.2214H20.5277" stroke="black" stroke-width="1.5" stroke-linecap="round"/>
</svg>
